 http://imageshack.us/m/5/8213/greenzonemattdamonirak2.jpg

Country.......: Francja, Spain, USA, United Kingdom
Genre.........: War, Thriller, Drama, Action
Date release..: 26.02.2010 [World]
Director......: Paul Greengrass
Writers.......: Brian Helgeland, Rajiv Chandrasekaran
Duration......: 115 min.
More..........: http://www.imdb.com/title/tt0947810
Trailer.......: http://www.imdb.com/video/imdb/vi447415577
Trailer.......:

Pilot :
Discovering covert and faulty intelligence causes a U.S. Army officer to go rogue as he hunts for Weapons of Mass Destruction in an unstable region. 

Cats :
Yigal Naor   	 ...  	General Al Rawi (as Igal Naor)
Said Faraj 	... 	Seyyed Hamza
Faycal Attougui 	... 	Al Rawi Bodyguard (as Faical Attougui)
Aymen Hamdouchi 	... 	Ayad Hamza
Matt Damon 	... 	Miller
Nicoye Banks 	... 	Perry
Jerry Della Salla 	... 	Wilkins
Sean Huze 	... 	Conway
Michael J. Dwyer 	... 	MET D (as Michael Dwyer)
Edouard H.R. Gluck 	... 	MET D
Brian Siefkes 	... 	MET D
Adam Wendling 	... 	MET D
Abdul Henderson 	... 	MET D
Paul Karsko 	... 	MET D - Sims
Robert Miller 	... 	MET D 

Data Technical :
!!! SAMPLE !!!
Audio.....: English
Subtitles.: English .srt, Spanish .srt, Portugues.srt, Polish .txt
Format                           : AVI
Format/Info                      : Audio Video Interleave
File size                        : 702 MiB
Duration                         : 1h 54mn
Overall bit rate                 : 855 Kbps
Writing application              : VirtualDubMod 1.5.4.1 (build 2178/release)
Writing library                  : VirtualDubMod build 2178/release
Video
ID                               : 0
Format                           : MPEG-4 Visual
Format profile                   : Advanced Simple@L5
Format settings, BVOP            : Yes
Format settings, QPel            : No
Format settings, GMC             : No warppoints
Format settings, Matrix          : Default (H.263)
Muxing mode                      : Packed bitstream
Codec ID                         : DX50
Codec ID/Hint                    : DivX 5
Duration                         : 1h 54mn
Bit rate                         : 750 Kbps
Width                            : 624 pixels
Height                           : 272 pixels
Display aspect ratio             : 2.25:1
Frame rate                       : 23.976 fps
Color space                      : YUV
Chroma subsampling               : 4:2:0
Bit depth                        : 8 bits
Scan type                        : Progressive
Bits/(Pixel*Frame)               : 0.184
Stream size                      : 616 MiB (88%)
Writing library                  : XviD 1.2.1 (UTC 2008-12-04)
Audio
ID                               : 1
Format                           : MPEG Audio
Format version                   : Version 1
Format profile                   : Layer 3
Mode                             : Joint stereo
Codec ID                         : 55
Codec ID/Hint                    : MP3
Duration                         : 1h 54mn
Bit rate mode                    : Constant
Bit rate                         : 96.0 Kbps
Channel(s)                       : 2 channels
Sampling rate                    : 32.0 KHz
Stream size                      : 78.8 MiB (11%)
Alignment                        : Aligned on interleaves
Interleave, duration             : 42 ms (1.00 video frame)
Interleave, preload duration     : 504 ms
Writing library                  : LAME3.90.3

Screen : 
http://imageshack.us/m/855/4112/greenzone2010s1.jpg 
http://imageshack.us/m/594/8074/greenzone2010s2.jpg 
http://imageshack.us/m/848/9480/greenzone2010s3.jpg 
http://imageshack.us/m/233/3867/greenzone2010s4.jpg 
http://imageshack.us/m/707/4408/greenzone2010s5.jpg